# xmcd
#
# Track frame offsets:
#       150
#       13128
#       27159
#       40200
#       52867
#       65156
#       78397
#       93222
#       104286
#       116962
#       128400
#       141043
#       155143
#       168192
#       180647
#
# Disc length: 2578 seconds
#
# Revision: 0
# Processed by: cddbd v1.5.1PL2 Copyright (c) Steve Scherf et al.
# Submitted via: CD-DA_X-Tractor v0.24
#
DISCID=c10a100f
DTITLE=Los Panchos - 30 Grandes de Los Panchos (v2)
DYEAR=2006
DGENRE=
TTITLE0=Me voy pa'l pueblo
TTITLE1=No sigamos pecando
TTITLE2=Rayito de luna
TTITLE3=Hasta mañana
TTITLE4=Sin tí
TTITLE5=Sin un amor
TTITLE6=Amapola
TTITLE7=Solamente una vez
TTITLE8=Recuerdos de tí
TTITLE9=Tus tormentos
TTITLE10=Contigo
TTITLE11=El día que me quieras
TTITLE12=Amorcito corazón
TTITLE13=Ya es muy tarde
TTITLE14=Ya me voy
EXTD=
EXTT0=
EXTT1=
EXTT2=
EXTT3=
EXTT4=
EXTT5=
EXTT6=
EXTT7=
EXTT8=
EXTT9=
EXTT10=
EXTT11=
EXTT12=
EXTT13=
EXTT14=
PLAYORDER=
